<svg width="36" height="36" viewBox="0 0 36 36" fill="none" xmlns="http://www.w3.org/2000/svg">
<rect x="0.5" y="0.5" width="35" height="35" rx="17.5" fill="white"/>
<rect x="0.5" y="0.5" width="35" height="35" rx="17.5" stroke="#CBD5E1"/>
<path d="M24.25 18.4167C24.25 17.8641 24.4695 17.3342 24.8602 16.9435C25.2509 16.5528 25.7808 16.3333 26.3333 16.3333V15.5C26.3333 12.1667 25.5 11.3333 22.1666 11.3333H13.8333C10.5 11.3333 9.66663 12.1667 9.66663 15.5V15.9167C10.2192 15.9167 10.7491 16.1362 11.1398 16.5269C11.5305 16.9176 11.75 17.4475 11.75 18C11.75 18.5525 11.5305 19.0824 11.1398 19.4731C10.7491 19.8638 10.2192 20.0833 9.66663 20.0833V20.5C9.66663 23.8333 10.5 24.6667 13.8333 24.6667H22.1666C25.5 24.6667 26.3333 23.8333 26.3333 20.5C25.7808 20.5 25.2509 20.2805 24.8602 19.8898C24.4695 19.4991 24.25 18.9692 24.25 18.4167Z" stroke="#334155" stroke-width="1.5" stroke-miterlimit="10"/>
<path d="M16.3334 11.3333V24.6667" stroke="#334155" stroke-width="1.5" stroke-miterlimit="10"/>
</svg>
