<svg width="36" height="36" viewBox="0 0 36 36" fill="none" xmlns="http://www.w3.org/2000/svg">
<rect x="0.5" y="0.5" width="35" height="35" rx="17.5" fill="white"/>
<rect x="0.5" y="0.5" width="35" height="35" rx="17.5" stroke="#CBD5E1"/>
<path d="M23 23.7167H22.3667C21.7 23.7167 21.0667 23.975 20.6 24.4417L19.175 25.85C18.525 26.4917 17.4667 26.4917 16.8167 25.85L15.3917 24.4417C14.925 23.975 14.2833 23.7167 13.625 23.7167H13C11.6167 23.7167 10.5 22.6083 10.5 21.2417V12.15C10.5 10.7833 11.6167 9.67499 13 9.67499H23C24.3833 9.67499 25.5 10.7833 25.5 12.15V21.2417C25.5 22.6 24.3833 23.7167 23 23.7167Z" stroke="#334155" stroke-width="1.5" stroke-miterlimit="10"/>
<path d="M13.8333 15.6333C13.8333 14.8583 14.4666 14.225 15.2416 14.225C16.0166 14.225 16.6499 14.8583 16.6499 15.6333C16.6499 17.2 14.4249 17.3667 13.9333 18.8583C13.8333 19.1667 14.0916 19.475 14.4166 19.475H16.6499M21.3666 19.4667V14.7083C21.367 14.603 21.3331 14.5005 21.2699 14.4162C21.2067 14.332 21.1178 14.2707 21.0166 14.2417C20.9147 14.2129 20.8062 14.2176 20.7072 14.2551C20.6082 14.2926 20.5238 14.3609 20.4666 14.45C19.8666 15.4167 19.2166 16.5167 18.6499 17.4833C18.5583 17.6417 18.5583 17.85 18.6499 18.0083C18.7416 18.1667 18.9166 18.2667 19.1083 18.2667H22.1666" stroke="#334155" stroke-width="1.5" stroke-miterlimit="10"/>
</svg>
