<svg width="36" height="36" viewBox="0 0 36 36" fill="none" xmlns="http://www.w3.org/2000/svg">
<rect x="0.5" y="0.5" width="35" height="35" rx="17.5" fill="white"/>
<rect x="0.5" y="0.5" width="35" height="35" rx="17.5" stroke="#CBD5E1"/>
<path d="M18.0167 10.425C15.2584 10.425 13.0167 12.6667 13.0167 15.425V17.8333C13.0167 18.3417 12.8001 19.1167 12.5417 19.55L11.5834 21.1417C10.9917 22.125 11.4001 23.2167 12.4834 23.5833C16.0751 24.7833 19.9501 24.7833 23.5417 23.5833C24.5501 23.25 24.9917 22.0583 24.4417 21.1417L23.4834 19.55C23.2334 19.1167 23.0167 18.3417 23.0167 17.8333V15.425C23.0167 12.675 20.7667 10.425 18.0167 10.425Z" stroke="#334155" stroke-width="1.5" stroke-miterlimit="10"/>
<path d="M19.5584 10.6667C18.5507 10.3797 17.4828 10.3797 16.4751 10.6667C16.7168 10.05 17.3168 9.61667 18.0168 9.61667C18.7168 9.61667 19.3168 10.05 19.5584 10.6667Z" stroke="#334155" stroke-width="1.5" stroke-miterlimit="10"/>
<path d="M20.5166 23.8833C20.5166 25.2583 19.3916 26.3833 18.0166 26.3833C17.3333 26.3833 16.6999 26.1 16.2499 25.65C15.7817 25.1811 15.5181 24.546 15.5166 23.8833" stroke="#334155" stroke-width="1.5" stroke-miterlimit="10"/>
</svg>
