<svg width="36" height="36" viewBox="0 0 36 36" fill="none" xmlns="http://www.w3.org/2000/svg">
<rect x="0.5" y="0.5" width="35" height="35" rx="17.5" fill="white"/>
<rect x="0.5" y="0.5" width="35" height="35" rx="17.5" stroke="#CBD5E1"/>
<path d="M9.69158 18.35C9.99158 22.6417 13.6332 26.1333 17.9916 26.325C21.0666 26.4583 23.8166 25.025 25.4666 22.7667C26.1499 21.8417 25.7832 21.225 24.6416 21.4333C24.0832 21.5333 23.5082 21.575 22.9082 21.55C18.8332 21.3833 15.4999 17.975 15.4832 13.95C15.4749 12.8667 15.6999 11.8417 16.1082 10.9083C16.5582 9.875 16.0166 9.38333 14.9749 9.825C11.6749 11.2167 9.41658 14.5417 9.69158 18.35Z" stroke="#334155" stroke-width="1.5" stroke-miterlimit="10"/>
</svg>
