<svg width="168" height="36" viewBox="0 0 168 36" fill="none" xmlns="http://www.w3.org/2000/svg">
<path d="M0.5 6C0.5 2.96243 2.96243 0.5 6 0.5H162C165.038 0.5 167.5 2.96243 167.5 6V30C167.5 33.0376 165.038 35.5 162 35.5H6C2.96243 35.5 0.5 33.0376 0.5 30V6Z" fill="white"/>
<path d="M0.5 6C0.5 2.96243 2.96243 0.5 6 0.5H162C165.038 0.5 167.5 2.96243 167.5 6V30C167.5 33.0376 165.038 35.5 162 35.5H6C2.96243 35.5 0.5 33.0376 0.5 30V6Z" stroke="#E2E8F0"/>
<path d="M21.3333 11.3333V13.3333M26.6667 11.3333V13.3333M18.3333 16.06H29.6667M30 15.6667V21.3333C30 23.3333 29 24.6667 26.6667 24.6667H21.3333C19 24.6667 18 23.3333 18 21.3333V15.6667C18 13.6667 19 12.3333 21.3333 12.3333H26.6667C29 12.3333 30 13.6667 30 15.6667Z" stroke="#334155" stroke-width="1.33333" stroke-linecap="round" stroke-linejoin="round"/>
<path d="M26.4633 19.1333H26.4693M26.4633 21.1333H26.4693M23.9966 19.1333H24.0033M23.9966 21.1333H24.0033M21.5293 19.1333H21.536M21.5293 21.1333H21.536" stroke="#334155" stroke-width="1.33333" stroke-linecap="round" stroke-linejoin="round"/>
<path d="M43.054 23V22.1051L46.4148 18.4261C46.8092 17.9953 47.134 17.6207 47.3892 17.3026C47.6444 16.9811 47.8333 16.6795 47.956 16.3977C48.0819 16.1127 48.1449 15.8144 48.1449 15.5028C48.1449 15.1449 48.0587 14.835 47.8864 14.5732C47.7173 14.3113 47.4853 14.1091 47.1903 13.9666C46.8954 13.8241 46.5639 13.7528 46.196 13.7528C45.8049 13.7528 45.4635 13.834 45.1719 13.9964C44.8835 14.1555 44.6598 14.3793 44.5007 14.6676C44.3449 14.956 44.267 15.294 44.267 15.6818H43.0938C43.0938 15.0852 43.2313 14.5616 43.5064 14.1108C43.7815 13.66 44.156 13.3087 44.63 13.0568C45.1072 12.8049 45.6425 12.679 46.2358 12.679C46.8324 12.679 47.361 12.8049 47.8217 13.0568C48.2824 13.3087 48.6437 13.6484 48.9055 14.076C49.1674 14.5036 49.2983 14.9792 49.2983 15.5028C49.2983 15.8774 49.2304 16.2436 49.0945 16.6016C48.9619 16.9562 48.7299 17.3523 48.3984 17.7898C48.0703 18.224 47.6146 18.7543 47.0312 19.3807L44.7443 21.8267V21.9062H49.4773V23H43.054ZM54.8516 23.1392C54.1025 23.1392 53.4645 22.9354 52.9375 22.5277C52.4105 22.1167 52.0078 21.5218 51.7294 20.7429C51.451 19.9607 51.3118 19.0161 51.3118 17.9091C51.3118 16.8087 51.451 15.8691 51.7294 15.0902C52.0111 14.308 52.4155 13.7114 52.9425 13.3004C53.4728 12.8861 54.1091 12.679 54.8516 12.679C55.594 12.679 56.2287 12.8861 56.7557 13.3004C57.286 13.7114 57.6903 14.308 57.9688 15.0902C58.2505 15.8691 58.3913 16.8087 58.3913 17.9091C58.3913 19.0161 58.2521 19.9607 57.9737 20.7429C57.6953 21.5218 57.2926 22.1167 56.7656 22.5277C56.2386 22.9354 55.6006 23.1392 54.8516 23.1392ZM54.8516 22.0455C55.594 22.0455 56.1707 21.6875 56.5817 20.9716C56.9927 20.2557 57.1982 19.2348 57.1982 17.9091C57.1982 17.0275 57.1037 16.2768 56.9148 15.657C56.7292 15.0372 56.4607 14.5649 56.1094 14.2401C55.7614 13.9152 55.3421 13.7528 54.8516 13.7528C54.1158 13.7528 53.5407 14.1158 53.1264 14.8416C52.7121 15.5642 52.505 16.5866 52.505 17.9091C52.505 18.7907 52.5978 19.5398 52.7834 20.1562C52.969 20.7727 53.2358 21.2417 53.5838 21.5632C53.9351 21.8847 54.3577 22.0455 54.8516 22.0455ZM60.2805 23V22.1051L63.6413 18.4261C64.0357 17.9953 64.3606 17.6207 64.6158 17.3026C64.871 16.9811 65.0599 16.6795 65.1825 16.3977C65.3085 16.1127 65.3714 15.8144 65.3714 15.5028C65.3714 15.1449 65.2853 14.835 65.1129 14.5732C64.9439 14.3113 64.7119 14.1091 64.4169 13.9666C64.1219 13.8241 63.7905 13.7528 63.4226 13.7528C63.0315 13.7528 62.6901 13.834 62.3984 13.9964C62.1101 14.1555 61.8864 14.3793 61.7273 14.6676C61.5715 14.956 61.4936 15.294 61.4936 15.6818H60.3203C60.3203 15.0852 60.4579 14.5616 60.733 14.1108C61.008 13.66 61.3826 13.3087 61.8565 13.0568C62.3338 12.8049 62.8691 12.679 63.4624 12.679C64.0589 12.679 64.5876 12.8049 65.0483 13.0568C65.509 13.3087 65.8703 13.6484 66.1321 14.076C66.3939 14.5036 66.5249 14.9792 66.5249 15.5028C66.5249 15.8774 66.4569 16.2436 66.321 16.6016C66.1884 16.9562 65.9564 17.3523 65.625 17.7898C65.2969 18.224 64.8411 18.7543 64.2578 19.3807L61.9709 21.8267V21.9062H66.7038V23H60.2805ZM72.1974 23.1392C71.5412 23.1392 70.9562 23.0265 70.4425 22.8011C69.9321 22.5758 69.526 22.2625 69.2244 21.8615C68.9261 21.4571 68.7637 20.9882 68.7372 20.4545H69.9901C70.0166 20.7827 70.1293 21.0661 70.3281 21.3047C70.527 21.54 70.7872 21.7223 71.1087 21.8516C71.4302 21.9808 71.7865 22.0455 72.1776 22.0455C72.6151 22.0455 73.0028 21.9692 73.3409 21.8168C73.679 21.6643 73.9441 21.4522 74.1364 21.1804C74.3286 20.9086 74.4247 20.5938 74.4247 20.2358C74.4247 19.8613 74.3319 19.5315 74.1463 19.2464C73.9607 18.9581 73.6889 18.7327 73.331 18.5703C72.973 18.4079 72.5355 18.3267 72.0185 18.3267H71.2031V17.233H72.0185C72.4228 17.233 72.7775 17.16 73.0824 17.0142C73.3906 16.8684 73.6309 16.6629 73.8033 16.3977C73.9789 16.1326 74.0668 15.821 74.0668 15.4631C74.0668 15.1184 73.9905 14.8184 73.8381 14.5632C73.6856 14.308 73.4702 14.1091 73.1918 13.9666C72.9167 13.8241 72.5919 13.7528 72.2173 13.7528C71.866 13.7528 71.5346 13.8175 71.223 13.9467C70.9148 14.0727 70.6629 14.2566 70.4673 14.4986C70.2718 14.7372 70.1657 15.0256 70.1491 15.3636H68.956C68.9759 14.83 69.1366 14.3627 69.4382 13.9616C69.7398 13.5573 70.1342 13.2424 70.6214 13.017C71.112 12.7917 71.6506 12.679 72.2372 12.679C72.867 12.679 73.4072 12.8066 73.858 13.0618C74.3087 13.3137 74.6551 13.6468 74.897 14.0611C75.139 14.4754 75.2599 14.9228 75.2599 15.4034C75.2599 15.9768 75.1091 16.4657 74.8075 16.87C74.5092 17.2744 74.1032 17.5545 73.5895 17.7102V17.7898C74.2325 17.8958 74.7346 18.1693 75.0959 18.6101C75.4571 19.0476 75.6378 19.5895 75.6378 20.2358C75.6378 20.7893 75.487 21.2865 75.1854 21.7273C74.8871 22.1648 74.4794 22.5095 73.9624 22.7614C73.4453 23.0133 72.857 23.1392 72.1974 23.1392ZM86.0036 17.3622V18.456H81.549V17.3622H86.0036ZM91.9856 23V22.1051L95.3464 18.4261C95.7408 17.9953 96.0656 17.6207 96.3208 17.3026C96.5761 16.9811 96.765 16.6795 96.8876 16.3977C97.0136 16.1127 97.0765 15.8144 97.0765 15.5028C97.0765 15.1449 96.9904 14.835 96.818 14.5732C96.649 14.3113 96.417 14.1091 96.122 13.9666C95.827 13.8241 95.4956 13.7528 95.1277 13.7528C94.7366 13.7528 94.3952 13.834 94.1035 13.9964C93.8152 14.1555 93.5914 14.3793 93.4324 14.6676C93.2766 14.956 93.1987 15.294 93.1987 15.6818H92.0254C92.0254 15.0852 92.1629 14.5616 92.438 14.1108C92.7131 13.66 93.0877 13.3087 93.5616 13.0568C94.0389 12.8049 94.5742 12.679 95.1674 12.679C95.764 12.679 96.2927 12.8049 96.7534 13.0568C97.2141 13.3087 97.5753 13.6484 97.8372 14.076C98.099 14.5036 98.2299 14.9792 98.2299 15.5028C98.2299 15.8774 98.162 16.2436 98.0261 16.6016C97.8935 16.9562 97.6615 17.3523 97.3301 17.7898C97.002 18.224 96.5462 18.7543 95.9629 19.3807L93.676 21.8267V21.9062H98.4089V23H91.9856ZM103.783 23.1392C103.034 23.1392 102.396 22.9354 101.869 22.5277C101.342 22.1167 100.939 21.5218 100.661 20.7429C100.383 19.9607 100.243 19.0161 100.243 17.9091C100.243 16.8087 100.383 15.8691 100.661 15.0902C100.943 14.308 101.347 13.7114 101.874 13.3004C102.404 12.8861 103.041 12.679 103.783 12.679C104.526 12.679 105.16 12.8861 105.687 13.3004C106.218 13.7114 106.622 14.308 106.9 15.0902C107.182 15.8691 107.323 16.8087 107.323 17.9091C107.323 19.0161 107.184 19.9607 106.905 20.7429C106.627 21.5218 106.224 22.1167 105.697 22.5277C105.17 22.9354 104.532 23.1392 103.783 23.1392ZM103.783 22.0455C104.526 22.0455 105.102 21.6875 105.513 20.9716C105.924 20.2557 106.13 19.2348 106.13 17.9091C106.13 17.0275 106.035 16.2768 105.846 15.657C105.661 15.0372 105.392 14.5649 105.041 14.2401C104.693 13.9152 104.274 13.7528 103.783 13.7528C103.047 13.7528 102.472 14.1158 102.058 14.8416C101.644 15.5642 101.437 16.5866 101.437 17.9091C101.437 18.7907 101.529 19.5398 101.715 20.1562C101.901 20.7727 102.167 21.2417 102.515 21.5632C102.867 21.8847 103.289 22.0455 103.783 22.0455ZM109.212 23V22.1051L112.573 18.4261C112.967 17.9953 113.292 17.6207 113.547 17.3026C113.803 16.9811 113.992 16.6795 114.114 16.3977C114.24 16.1127 114.303 15.8144 114.303 15.5028C114.303 15.1449 114.217 14.835 114.045 14.5732C113.876 14.3113 113.644 14.1091 113.349 13.9666C113.054 13.8241 112.722 13.7528 112.354 13.7528C111.963 13.7528 111.622 13.834 111.33 13.9964C111.042 14.1555 110.818 14.3793 110.659 14.6676C110.503 14.956 110.425 15.294 110.425 15.6818H109.252C109.252 15.0852 109.39 14.5616 109.665 14.1108C109.94 13.66 110.314 13.3087 110.788 13.0568C111.265 12.8049 111.801 12.679 112.394 12.679C112.991 12.679 113.519 12.8049 113.98 13.0568C114.441 13.3087 114.802 13.6484 115.064 14.076C115.326 14.5036 115.456 14.9792 115.456 15.5028C115.456 15.8774 115.389 16.2436 115.253 16.6016C115.12 16.9562 114.888 17.3523 114.557 17.7898C114.229 18.224 113.773 18.7543 113.189 19.3807L110.903 21.8267V21.9062H115.635V23H109.212ZM117.231 20.9119V19.8977L121.706 12.8182H122.442V14.3892H121.944L118.564 19.7386V19.8182H124.589V20.9119H117.231ZM122.024 23V20.6037V20.1314V12.8182H123.197V23H122.024Z" fill="black"/>
<path d="M140 16L144 20L148 16" stroke="#334155" stroke-width="1.33333" stroke-linecap="round" stroke-linejoin="round"/>
</svg>
