<svg width="10" height="10" viewBox="0 0 10 10" fill="none" xmlns="http://www.w3.org/2000/svg">
<path d="M7.84375 5.875H6.75V4.125H7.84375C8.23313 4.125 8.61377 4.00954 8.93753 3.79321C9.26129 3.57688 9.51363 3.2694 9.66264 2.90966C9.81165 2.54992 9.85064 2.15407 9.77467 1.77217C9.69871 1.39027 9.5112 1.03947 9.23587 0.764134C8.96053 0.4888 8.60974 0.301295 8.22783 0.22533C7.84593 0.149365 7.45009 0.188353 7.09034 0.337363C6.7306 0.486373 6.42312 0.738713 6.20679 1.06247C5.99047 1.38623 5.875 1.76687 5.875 2.15625V3.25H4.125V2.15625C4.125 1.76687 4.00954 1.38623 3.79321 1.06247C3.57688 0.738713 3.2694 0.486373 2.90966 0.337363C2.54992 0.188353 2.15407 0.149365 1.77217 0.22533C1.39027 0.301295 1.03947 0.4888 0.764134 0.764134C0.4888 1.03947 0.301295 1.39027 0.22533 1.77217C0.149365 2.15407 0.188353 2.54992 0.337363 2.90966C0.486373 3.2694 0.738713 3.57688 1.06247 3.79321C1.38623 4.00954 1.76687 4.125 2.15625 4.125H3.25V5.875H2.15625C1.76687 5.875 1.38623 5.99047 1.06247 6.20679C0.738713 6.42312 0.486373 6.7306 0.337363 7.09034C0.188353 7.45009 0.149365 7.84593 0.22533 8.22783C0.301295 8.60974 0.4888 8.96053 0.764134 9.23587C1.03947 9.5112 1.39027 9.69871 1.77217 9.77467C2.15407 9.85064 2.54992 9.81165 2.90966 9.66264C3.2694 9.51363 3.57688 9.26129 3.79321 8.93753C4.00954 8.61377 4.125 8.23313 4.125 7.84375V6.75H5.875V7.84375C5.875 8.23313 5.99047 8.61377 6.20679 8.93753C6.42312 9.26129 6.7306 9.51363 7.09034 9.66264C7.45009 9.81165 7.84593 9.85064 8.22783 9.77467C8.60974 9.69871 8.96053 9.5112 9.23587 9.23587C9.5112 8.96053 9.69871 8.60974 9.77467 8.22783C9.85064 7.84593 9.81165 7.45009 9.66264 7.09034C9.51363 6.7306 9.26129 6.42312 8.93753 6.20679C8.61377 5.99047 8.23313 5.875 7.84375 5.875ZM6.75 2.15625C6.75 1.93993 6.81415 1.72846 6.93433 1.5486C7.05451 1.36873 7.22533 1.22854 7.42519 1.14576C7.62505 1.06297 7.84496 1.04131 8.05713 1.08352C8.2693 1.12572 8.46418 1.22989 8.61715 1.38285C8.77011 1.53582 8.87428 1.7307 8.91648 1.94287C8.95869 2.15504 8.93703 2.37495 8.85424 2.57481C8.77146 2.77467 8.63127 2.94549 8.45141 3.06567C8.27154 3.18585 8.06007 3.25 7.84375 3.25H6.75V2.15625ZM1.0625 2.15625C1.0625 1.86617 1.17773 1.58797 1.38285 1.38285C1.58797 1.17773 1.86617 1.0625 2.15625 1.0625C2.44633 1.0625 2.72453 1.17773 2.92965 1.38285C3.13477 1.58797 3.25 1.86617 3.25 2.15625V3.25H2.15625C1.86617 3.25 1.58797 3.13477 1.38285 2.92965C1.17773 2.72453 1.0625 2.44633 1.0625 2.15625ZM3.25 7.84375C3.25 8.06007 3.18585 8.27154 3.06567 8.45141C2.94549 8.63127 2.77467 8.77146 2.57481 8.85424C2.37495 8.93703 2.15504 8.95869 1.94287 8.91648C1.7307 8.87428 1.53582 8.77011 1.38285 8.61715C1.22989 8.46418 1.12572 8.2693 1.08352 8.05713C1.04131 7.84496 1.06297 7.62505 1.14576 7.42519C1.22854 7.22533 1.36873 7.05451 1.5486 6.93433C1.72846 6.81415 1.93993 6.75 2.15625 6.75H3.25V7.84375ZM4.125 4.125H5.875V5.875H4.125V4.125ZM7.84375 8.9375C7.55367 8.9375 7.27547 8.82227 7.07035 8.61715C6.86523 8.41203 6.75 8.13383 6.75 7.84375V6.75H7.84375C8.13383 6.75 8.41203 6.86523 8.61715 7.07035C8.82227 7.27547 8.9375 7.55367 8.9375 7.84375C8.9375 8.13383 8.82227 8.41203 8.61715 8.61715C8.41203 8.82227 8.13383 8.9375 7.84375 8.9375Z" fill="white"/>
</svg>
